# xmcd CD database file
# Copyright (C) 1997 Ti Kan
#
# Track frame offsets:
#  150
#  11468
#  21358
#  30015
#  36635
#  45490
#  56880
#  67538
#  77253
#  86485
#  96963
#  109208
#  119090
#  126980
#  139135
#  149563
#
# Disc length: 2162 seconds
#
# Revision: 1
# Processed by: cddbd v1.4b41PL1 Copyright (c) Steve Scherf et al.
# Submitted via: CDWizzard Release:4.23
#
DISCID=d7087010
DTITLE=Duane Eddy - The Best Of Duane Eddy
DYEAR=1900
DGENRE=
TTITLE0=Rebel Rouser
TTITLE1=Forty Miles Of Bad Road
TTITLE2=Shazam!
TTITLE3=Some Kinda Earthquake
TTITLE4=Because They're Young
TTITLE5=Peter Gunn
TTITLE6=Theme From Dixie
TTITLE7=Detour
TTITLE8=The Lonely One
TTITLE9=Cannonball
TTITLE10=Kommotion
TTITLE11=Movin' N' Groovin'
TTITLE12=Trambone
TTITLE13=Yep
TTITLE14=Bonnie Come Back
TTITLE15=Dance With The Guitar Man
EXTD=
EXTT0=
EXTT1=
EXTT2=
EXTT3=
EXTT4=
EXTT5=
EXTT6=
EXTT7=
EXTT8=
EXTT9=
EXTT10=
EXTT11=
EXTT12=
EXTT13=
EXTT14=
EXTT15=
PLAYORDER=
